<svg width="123" height="113" viewBox="0 0 123 113" fill="none" xmlns="http://www.w3.org/2000/svg">
<g clip-path="url(#clip0_5_49)">
<g style="mix-blend-mode:luminosity">
<path fill-rule="evenodd" clip-rule="evenodd" d="M6.56 52C33.11 57.3 43.18 89.47 86.29 67.8L58 96.06C58 96.06 57.43 96.64 57.37 96.71C56.3035 98.0619 54.7762 98.9734 53.08 99.27C51.7009 99.5674 50.284 99.6483 48.88 99.51V99.51C47.2447 99.3415 45.6342 98.9858 44.08 98.45C36.68 95.97 28.91 90.65 22.29 84.08C15.67 77.51 10.22 69.62 7.61 62.19C7.18159 60.9707 6.84728 59.7204 6.61 58.45C6.39811 57.3626 6.28764 56.2578 6.28 55.15C6.24338 54.0925 6.33742 53.0345 6.56 52V52Z" fill="#909090"/>
</g>
<path d="M110.56 84.94C109.35 83.09 108.12 81.22 106.95 79.3C105.6 81.56 104.18 83.78 102.8 85.94C99.29 91.42 96.08 96.45 96.08 98.49C96.08 103.14 98.32 106.2 101.31 107.7C102.854 108.45 104.535 108.875 106.25 108.95C108.002 109.054 109.758 108.803 111.41 108.21C113.123 107.622 114.632 106.557 115.759 105.139C116.886 103.722 117.584 102.011 117.77 100.21C117.9 96.11 114.33 90.68 110.56 84.94Z" fill="black"/>
<path d="M111.24 72.76C112.06 76.24 114.41 79.82 116.67 83.26C120.02 88.36 123.19 93.19 122.85 98.77V98.99C122.595 101.847 121.514 104.567 119.738 106.819C117.962 109.071 115.569 110.756 112.85 111.67C110.657 112.46 108.327 112.8 106 112.67C103.659 112.553 101.368 111.954 99.27 110.91C96.694 109.64 94.5416 107.649 93.0738 105.18C91.6059 102.712 90.8856 99.87 91 97C91 93.14 93.79 88.78 96.83 84C99.29 80.16 101.94 76 102.69 72.75C102.916 71.7803 103.463 70.9155 104.243 70.2965C105.023 69.6774 105.989 69.3405 106.985 69.3405C107.981 69.3405 108.947 69.6774 109.727 70.2965C110.507 70.9155 111.054 71.7803 111.28 72.75L111.24 72.76Z" fill="black"/>
<g style="mix-blend-mode:luminosity">
<path fill-rule="evenodd" clip-rule="evenodd" d="M107 73.76C109.15 82.96 119 90.87 118.5 98.51C117.01 112.05 95.43 111.51 95.43 97C95.43 91.82 105.15 81.75 107 73.76Z" fill="#909090"/>
</g>
<path d="M34.65 13.77C24.43 14.87 18.43 18.4 15.65 22.88C14.7212 24.4742 14.1325 26.2434 13.9208 28.0763C13.7091 29.9092 13.8791 31.766 14.42 33.53L14.51 33.87L34.62 13.77H34.65ZM80.8 24.89C73.51 17.59 66.14 11.89 60.07 8.71998C55.76 6.49998 52.4 5.60998 50.75 6.54998L49.93 7.36998C48.71 9.36998 49.42 13.63 51.71 18.95C55.246 26.6227 60.1646 33.5787 66.22 39.47C73.16 46.41 80.61 51.61 86.95 54.47C91.46 56.47 95.16 57.37 97.3 56.79L99.21 54.87C99.66 52.96 98.71 49.73 96.72 45.74C93.63 39.53 88 32.08 80.8 24.89ZM62.94 3.14998C69.6 6.57998 77.52 12.72 85.25 20.45C92.98 28.18 99 36.15 102.34 43C106.09 50.51 106.69 56.92 103.03 60.58C102.429 61.153 101.744 61.6318 101 62L61.88 101.1C59.53 103.47 58.55 104.47 54.5 105.38C52.4843 105.817 50.413 105.938 48.36 105.74C46.2346 105.534 44.1405 105.081 42.12 104.39C33.79 101.59 25.12 95.73 17.9 88.53C10.68 81.33 4.63 72.6 1.7 64.25C1.15377 62.7362 0.729089 61.1813 0.429998 59.6C0.146171 58.1336 0.00219206 56.6436 -2.24821e-06 55.15C-0.117268 52.8157 0.303566 50.4857 1.23 48.34C2.18995 46.4926 3.46587 44.8274 5 43.42L5.16 43.25L9.87 38.55C9.37634 37.4326 8.96849 36.2793 8.65 35.1C7.88632 32.55 7.66264 29.8689 7.99323 27.2276C8.32382 24.5864 9.20141 22.0431 10.57 19.76C14.84 12.78 24.42 7.58998 41 7.41998L45.17 3.25998C45.6103 2.65634 46.1436 2.12641 46.75 1.68998C46.947 1.50411 47.1734 1.35207 47.42 1.23998C51.13 -1.00002 56.62 -0.110024 62.94 3.14998ZM91.48 62.61C89.0318 62.0546 86.6487 61.2435 84.37 60.19C77.37 57.03 69.26 51.38 61.78 43.91C55.164 37.4532 49.7943 29.8327 45.94 21.43C44.8502 18.9706 44.0482 16.3935 43.55 13.75L17.44 39.85C18.6168 41.5366 19.9934 43.0744 21.54 44.43C28.8 50.86 40.41 54.12 53.18 48.65C53.9096 48.3514 54.7274 48.352 55.4566 48.6517C56.1858 48.9514 56.7677 49.526 57.0765 50.2514C57.3853 50.9767 57.3962 51.7945 57.1068 52.5278C56.8174 53.2611 56.2509 53.851 55.53 54.17C40.32 60.68 26.36 56.69 17.53 48.92C15.898 47.481 14.417 45.8794 13.11 44.14L9.44 47.85C8.42992 48.757 7.5723 49.8206 6.9 51C6.3886 52.3171 6.1702 53.7299 6.26 55.14C6.26764 56.2478 6.37811 57.3526 6.59 58.44C6.82728 59.7104 7.16159 60.9607 7.59 62.18C10.2 69.61 15.59 77.45 22.3 84.07C29.01 90.69 36.71 96 44.11 98.45C45.6642 98.9858 47.2747 99.3415 48.91 99.51V99.51C50.314 99.6483 51.7309 99.5673 53.11 99.27C54.8062 98.9733 56.3335 98.0619 57.4 96.71C57.46 96.64 58.04 96.07 58.03 96.06L91.48 62.61Z" fill="black"/>
</g>
<defs>
<clipPath id="clip0_5_49">
<rect width="122.88" height="112.71" fill="white"/>
</clipPath>
</defs>
</svg>
