<svg width="91" height="46" viewBox="0 0 91 46" fill="none" xmlns="http://www.w3.org/2000/svg">
<g style="mix-blend-mode:luminosity" clip-path="url(#clip0_4_34)">
<g style="mix-blend-mode:luminosity">
<path d="M45.49 0.210022C57.88 0.210022 69.09 5.23002 77.2 13.35C85.32 21.47 90.34 32.68 90.34 45.06H83.28C83.28 34.62 79.05 25.17 72.21 18.34C65.37 11.5 55.92 7.27002 45.49 7.27002C35.05 7.27002 25.6 11.5 18.77 18.34C11.93 25.17 7.7 34.62 7.7 45.06H0.639999C0.639999 32.67 5.66 21.46 13.78 13.35C21.89 5.23002 33.11 0.210022 45.49 0.210022Z" fill="#494949"/>
</g>
<g style="mix-blend-mode:luminosity">
<path d="M45.49 7.18005C55.95 7.18005 65.42 11.4201 72.28 18.2801C79.14 25.1401 83.38 34.6101 83.38 45.0701H77.42C77.42 36.2601 73.85 28.2701 68.07 22.5001C62.29 16.7201 54.31 13.1501 45.5 13.1501C36.69 13.1501 28.7 16.7201 22.93 22.5001C17.15 28.2801 13.58 36.2601 13.58 45.0701H7.62C7.62 34.6101 11.86 25.1401 18.72 18.2801C25.56 11.4201 35.03 7.18005 45.49 7.18005Z" fill="#8B8B8B"/>
</g>
<g style="mix-blend-mode:luminosity">
<path d="M45.49 13.06C54.33 13.06 62.33 16.64 68.12 22.43C73.91 28.22 77.49 36.22 77.49 45.06H72.46C72.46 37.61 69.44 30.87 64.56 25.99C59.68 21.11 52.94 18.09 45.49 18.09C38.04 18.09 31.3 21.11 26.42 25.99C21.54 30.87 18.52 37.61 18.52 45.06H13.49C13.49 36.22 17.07 28.22 22.86 22.43C28.66 16.64 36.66 13.06 45.49 13.06Z" fill="#DCDCDC"/>
</g>
<g style="mix-blend-mode:luminosity">
<path d="M45.49 18.03C52.95 18.03 59.71 21.05 64.6 25.95C69.49 30.84 72.52 37.6 72.52 45.06H68.27C68.27 38.77 65.72 33.08 61.6 28.96C57.48 24.84 51.79 22.29 45.5 22.29C39.21 22.29 33.52 24.84 29.4 28.96C25.28 33.08 22.73 38.77 22.73 45.06H18.48C18.48 37.6 21.5 30.84 26.4 25.95C31.27 21.06 38.03 18.03 45.49 18.03Z" fill="#969696"/>
</g>
<g style="mix-blend-mode:luminosity">
<path d="M45.49 22.23C51.79 22.23 57.5 24.78 61.63 28.92C65.76 33.05 68.32 38.76 68.32 45.06H64.73C64.73 39.75 62.58 34.94 59.1 31.46C55.62 27.98 50.81 25.83 45.5 25.83C40.19 25.83 35.38 27.98 31.9 31.46C28.42 34.94 26.27 39.75 26.27 45.06H22.68C22.68 38.76 25.23 33.05 29.37 28.92C33.48 24.79 39.19 22.23 45.49 22.23Z" fill="#898989"/>
</g>
<g style="mix-blend-mode:luminosity">
<path d="M45.49 25.78C50.81 25.78 55.63 27.94 59.12 31.43C62.61 34.92 64.77 39.74 64.77 45.06H61.74C61.74 40.57 59.92 36.51 56.98 33.57C54.04 30.63 49.98 28.81 45.49 28.81C41 28.81 36.94 30.63 34 33.57C31.06 36.51 29.24 40.57 29.24 45.06H26.21C26.21 39.74 28.37 34.91 31.86 31.43C35.35 27.94 40.17 25.78 45.49 25.78Z" fill="#525252"/>
</g>
<g style="mix-blend-mode:luminosity">
<path d="M45.49 28.77C49.99 28.77 54.06 30.59 57.01 33.54C59.96 36.49 61.78 40.56 61.78 45.06H59.22C59.22 41.27 57.68 37.84 55.2 35.36C52.72 32.88 49.29 31.34 45.5 31.34C41.71 31.34 38.28 32.88 35.8 35.36C33.32 37.84 31.78 41.27 31.78 45.06H29.22C29.22 40.56 31.04 36.49 33.99 33.54C36.92 30.6 40.99 28.77 45.49 28.77Z" fill="#565656"/>
</g>
</g>
<defs>
<clipPath id="clip0_4_34">
<rect width="89.7" height="44.86" fill="white" transform="translate(0.639999 0.210022)"/>
</clipPath>
</defs>
</svg>
